<?xml version="1.0" encoding="UTF-8" standalone="no"?>
<svg
   version="1.1"
   id="Layer_1"
   x="0px"
   y="0px"
   viewBox="0 0 122.879 122.881"
   enable-background="new 0 0 122.879 122.881"
   xml:space="preserve"
   sodipodi:docname="dns-icon.svg"
   inkscape:version="1.4.2 (ebf0e940, 2025-05-08)"
   inkscape:export-filename="dns-icon.jpg"
   inkscape:export-xdpi="625.00513"
   inkscape:export-ydpi="625.00513"
   xmlns:inkscape="http://www.inkscape.org/namespaces/inkscape"
   xmlns:sodipodi="http://sodipodi.sourceforge.net/DTD/sodipodi-0.dtd"
   xmlns:xlink="http://www.w3.org/1999/xlink"
   xmlns="http://www.w3.org/2000/svg"
   xmlns:svg="http://www.w3.org/2000/svg"><defs
     id="defs1"><linearGradient
       id="swatch1"
       inkscape:swatch="solid"><stop
         style="stop-color:#f9f9f9;stop-opacity:1;"
         offset="0"
         id="stop1" /></linearGradient><linearGradient
       inkscape:collect="always"
       xlink:href="#swatch1"
       id="linearGradient1"
       x1="9.8216918"
       y1="63.82495"
       x2="113.31121"
       y2="63.82495"
       gradientUnits="userSpaceOnUse" /></defs><sodipodi:namedview
     id="namedview1"
     pagecolor="#ffffff"
     bordercolor="#000000"
     borderopacity="0.25"
     inkscape:showpageshadow="2"
     inkscape:pageopacity="0.0"
     inkscape:pagecheckerboard="0"
     inkscape:deskcolor="#d1d1d1"
     inkscape:zoom="4"
     inkscape:cx="61.5"
     inkscape:cy="61.5"
     inkscape:window-width="1512"
     inkscape:window-height="949"
     inkscape:window-x="0"
     inkscape:window-y="33"
     inkscape:window-maximized="0"
     inkscape:current-layer="g1" /><g
     inkscape:groupmode="layer"
     id="layer1"
     inkscape:label="zns"><text
       xml:space="preserve"
       style="font-style:normal;font-variant:normal;font-weight:bold;font-stretch:normal;font-size:53.3333px;font-family:Arial;-inkscape-font-specification:'Arial, Bold';font-variant-ligatures:normal;font-variant-caps:normal;font-variant-numeric:normal;font-variant-east-asian:normal;text-align:center;writing-mode:lr-tb;direction:ltr;text-anchor:middle;fill:#000000;fill-opacity:1;stroke-width:4.38"
       x="62.455124"
       y="80.516006"
       id="text1"><tspan
         sodipodi:role="line"
         id="tspan1"
         x="62.455124"
         y="80.516006"
         style="fill:#000000;fill-opacity:1">ZNS</tspan></text></g><g
     id="g1"><path
       d="m 109.467,89.505 c 0.182,0 0.359,0.019 0.531,0.053 1.146,-1.998 2.191,-4.095 3.137,-6.287 0.018,-0.043 0.037,-0.085 0.059,-0.127 1.418,-3.346 2.488,-6.819 3.209,-10.42 0.193,-0.961 0.359,-1.931 0.5,-2.908 0.639,-3.953 0.803,-7.97 0.482,-12.052 -0.16,-2.591 -0.488,-5.126 -0.982,-7.605 -0.73,-3.646 -1.818,-7.165 -3.266,-10.549 l -0.002,0.002 -3.107,-6.233 v 0 l -0.283,-0.336 H 13.047 l -0.195,0.336 C 11.716,35.361 10.682,37.44 9.747,39.613 9.728,39.656 9.708,39.699 9.688,39.74 8.81,41.811 8.066,43.93 7.455,46.098 4.883,54.546 4.483,62.993 6.238,71.44 c 0.076,0.43 0.155,0.858 0.241,1.285 0.729,3.646 1.818,7.164 3.264,10.549 l 0.004,-0.001 c 0.935,2.172 1.969,4.251 3.105,6.233 v 0 c 32.236,-0.001 64.425,-0.001 96.615,-0.001 z m -2.946,5.386 H 89.508 c -5.166,7.481 -12.123,14.87 -20.84,22.167 1.367,-0.169 2.719,-0.388 4.057,-0.654 3.646,-0.729 7.164,-1.817 10.549,-3.265 l -0.002,-0.004 c 3.441,-1.48 6.646,-3.212 9.609,-5.199 2.969,-1.992 5.721,-4.255 8.25,-6.795 l 0.01,-0.01 v 0 c 1.957,-1.949 3.75,-4.03 5.38,-6.24 z M 54.21,117.058 C 45.494,109.761 38.537,102.372 33.372,94.891 H 16.361 c 1.631,2.21 3.423,4.291 5.379,6.24 l 0.01,0.011 v -10e-4 c 2.53,2.54 5.282,4.804 8.25,6.795 2.962,1.987 6.167,3.719 9.61,5.199 0.042,0.019 0.085,0.039 0.127,0.059 3.345,1.42 6.819,2.488 10.42,3.209 1.336,0.267 2.686,0.486 4.053,0.655 z M 16.361,27.991 H 34.299 C 39.407,20.63 46.161,13.226 54.589,5.779 53.094,5.954 51.616,6.188 50.158,6.479 46.511,7.208 42.994,8.297 39.609,9.744 v 0.003 c -3.442,1.481 -6.647,3.211 -9.609,5.2 -2.969,1.992 -5.72,4.255 -8.25,6.794 l -0.01,0.009 v 0 c -1.956,1.951 -3.748,4.03 -5.379,6.241 z M 68.291,5.778 c 8.428,7.447 15.182,14.851 20.291,22.212 h 17.939 c -1.633,-2.21 -3.426,-4.292 -5.383,-6.241 l -0.01,-0.009 v 0 C 98.601,19.2 95.849,16.938 92.878,14.946 89.915,12.958 86.71,11.227 83.269,9.746 83.226,9.727 83.183,9.707 83.142,9.687 79.796,8.269 76.322,7.199 72.722,6.479 71.266,6.187 69.785,5.954 68.291,5.778 Z M 49.107,1.198 C 53.099,0.399 57.211,0 61.44,0 c 4.229,0 8.341,0.399 12.333,1.198 3.936,0.788 7.758,1.969 11.475,3.547 0.049,0.018 0.1,0.038 0.146,0.058 3.703,1.594 7.197,3.485 10.473,5.685 3.268,2.192 6.291,4.677 9.064,7.461 2.785,2.775 5.271,5.799 7.463,9.065 2.197,3.275 4.09,6.769 5.684,10.474 l -0.004,10e-4 0.004,0.009 c 1.607,3.758 2.809,7.627 3.605,11.609 0.799,3.992 1.195,8.104 1.195,12.334 0,4.229 -0.396,8.343 -1.195,12.335 -0.787,3.932 -1.973,7.758 -3.547,11.472 -0.02,0.05 -0.037,0.099 -0.061,0.147 -1.594,3.705 -3.484,7.196 -5.684,10.472 -2.191,3.268 -4.676,6.29 -7.461,9.065 -2.775,2.785 -5.799,5.271 -9.066,7.462 -3.273,2.198 -6.768,4.091 -10.471,5.684 l -0.002,-0.004 -0.01,0.004 c -3.758,1.606 -7.629,2.809 -11.609,3.604 -3.992,0.8 -8.105,1.198 -12.333,1.198 -4.229,0 -8.343,-0.398 -12.334,-1.198 -3.933,-0.787 -7.758,-1.97 -11.474,-3.546 -0.049,-0.019 -0.098,-0.037 -0.147,-0.06 -3.705,-1.593 -7.197,-3.484 -10.472,-5.684 -3.266,-2.19 -6.291,-4.677 -9.065,-7.462 -2.785,-2.775 -5.27,-5.799 -7.461,-9.064 C 8.288,92.592 6.396,89.098 4.802,85.393 L 4.806,85.391 4.802,85.382 C 3.196,81.624 1.994,77.754 1.198,73.773 0.4,69.783 0,65.671 0,61.44 0,57.211 0.4,53.098 1.198,49.106 c 0.787,-3.933 1.97,-7.757 3.546,-11.473 0.019,-0.049 0.038,-0.1 0.058,-0.147 1.594,-3.705 3.485,-7.198 5.684,-10.474 2.192,-3.266 4.677,-6.29 7.461,-9.065 2.774,-2.785 5.799,-5.27 9.065,-7.461 3.275,-2.199 6.769,-4.09 10.472,-5.685 l 10e-4,0.004 0.009,-0.004 C 41.255,3.197 45.126,1.995 49.107,1.198 Z m 15.028,8.07 V 27.991 H 81.961 C 77.275,21.815 71.34,15.575 64.135,9.268 Z m 0,85.623 v 18.952 c 7.645,-6.283 13.9,-12.601 18.746,-18.952 z m -5.387,18.954 V 94.891 H 40 c 4.843,6.35 11.101,12.671 18.748,18.954 z m 0,-85.854 V 9.266 C 51.541,15.573 45.605,21.815 40.921,27.991 Z"
       id="path1"
       sodipodi:nodetypes="scccccccccccccccccccccssscccccccccscccccccscccccccccccccsccccccsccccccsccccccccccsscccccccccsccccccccccscccccccccccccccccccccccccc"
       inkscape:label="circle" /></g></svg>
